<svg width="31" height="23" viewBox="0 0 31 23" fill="none" xmlns="http://www.w3.org/2000/svg">
<path fill-rule="evenodd" clip-rule="evenodd" d="M6.66665 6.09765L15.1784 0.536329C15.7515 0.469325 16.8976 0.623434 16.8976 1.7759V22.0278C16.701 22.441 16.0818 23.2037 15.1784 22.9491C14.275 22.6945 9.12748 19.169 6.66665 17.4381H1.59331C1.06519 17.4381 0.00894374 17.1365 0.00894374 15.9305V7.60524C-0.0528578 7.10271 0.177493 6.09765 1.59331 6.09765H6.66665ZM5.60479 14.4899V8.92856H2.84058V14.4899H5.60479ZM14.0491 4.59006L8.5207 8.14127V15.0259L14.0491 18.9456V4.59006Z" fill="white"/>
<path d="M20.2517 6.49967C19.9427 6.10323 19.5101 5.1663 20.2517 4.59006C21.1788 3.86977 21.6507 4.00378 22.2406 4.59006C22.8306 5.17635 25.3419 7.55498 25.4094 11.0224C25.4768 14.4899 24.2801 17.1198 22.7631 18.4934C21.5496 19.5922 21.0327 18.9512 20.9259 18.4934C20.6226 18.2589 20.1978 17.552 20.9259 16.6005C21.8361 15.4112 22.4935 13.3006 22.6283 11.3407C22.7362 9.77281 21.0889 7.46006 20.2517 6.49967Z" fill="white"/>
<path d="M23.8161 2.13118C25.333 3.76044 28.3399 7.81965 28.2321 11.0224C28.0972 15.0259 27.2118 16.7548 24.7262 20.5572C24.4397 20.8755 24.0385 21.6896 24.7262 22.3998C25.4139 23.1101 26.2263 22.841 26.5466 22.6176C27.2657 21.9308 28.9164 20.0112 29.7659 17.8268C30.8277 15.0964 31.4008 13.1533 30.676 8.46304C30.0962 4.71083 27.2095 1.44997 25.8387 0.288571C25.5802 0.0708086 24.8577 -0.234059 24.0352 0.288571C23.2127 0.811201 23.5464 1.73474 23.8161 2.13118Z" fill="white"/>
</svg>
